# xmcd CD database file
#
# Track frame offsets:
#	150
#	17212
#	47607
#	84452
#	99525
#	113895
#	134255
#	171102
#	187752
#	222292
#
# Disc length: 3240 seconds
#
# Revision: 0
# Processed by: cddbd v1.4PL0 Copyright (c) Steve Scherf et al.
# Submitted via: CDex 1.40Release
#
DISCID=7e0ca60a
DTITLE=J-Blues - KOTEZ and Yancy
DYEAR=2000
DGENRE=Blues
TTITLE0=Chong-No-Mur
TTITLE1=Hoochie Coochie Man
TTITLE2=On The Sunnyside Of The Street
TTITLE3=It's Only A Papermoon
TTITLE4=Tokyo Blues
TTITLE5=RAg
TTITLE6=Stormy Monday Blues
TTITLE7=Members Only
TTITLE8=I Want To Be Your Baby
TTITLE9=If I Coulde Be With You
EXTD=YEAR: 2000 ID3G: 0
EXTT0=
EXTT1=
EXTT2=
EXTT3=
EXTT4=
EXTT5=
EXTT6=
EXTT7=
EXTT8=
EXTT9=
PLAYORDER=
